<?xml version="1.0" encoding="UTF-8" standalone="no"?>
<svg width="35px" height="35px" viewBox="0 0 35 35" version="1.1" xmlns="http://www.w3.org/2000/svg" xmlns:xlink="http://www.w3.org/1999/xlink">
    <!-- Generator: Sketch 3.8.3 (29802) - http://www.bohemiancoding.com/sketch -->
    <title>facebook logo</title>
    <desc>Created with Sketch.</desc>
    <defs></defs>
    <g id="Page-1" stroke="none" stroke-width="1" fill="none" fill-rule="evenodd">
        <g id="facebook-logo" fill="#404040">
            <g id="Capa_1">
                <path d="M35,5.83372222 C35,2.7685 32.2326667,0 29.1666667,0 L5.83333333,0 C2.76733333,0 0,2.7685 0,5.83372222 L0,29.1662778 C0,32.2315 2.76733333,35 5.83372222,35 L17.5,35 L17.5,21.7777778 L13.2222222,21.7777778 L13.2222222,15.9444444 L17.5,15.9444444 L17.5,13.6717778 C17.5,9.75216667 20.4431111,6.22222222 24.0625,6.22222222 L28.7777778,6.22222222 L28.7777778,12.0555556 L24.0625,12.0555556 C23.5464444,12.0555556 22.9444444,12.6820556 22.9444444,13.6204444 L22.9444444,15.9444444 L28.7777778,15.9444444 L28.7777778,21.7777778 L22.9444444,21.7777778 L22.9444444,35 L29.1666667,35 C32.2326667,35 35,32.2315 35,29.1662778 L35,5.83372222 L35,5.83372222 Z" id="Facebook__x28_alt_x29_"></path>
            </g>
        </g>
    </g>
</svg>