<?xml version="1.0" encoding="UTF-8" standalone="no"?>
<svg width="35px" height="35px" viewBox="0 0 35 35" version="1.1" xmlns="http://www.w3.org/2000/svg" xmlns:xlink="http://www.w3.org/1999/xlink">
    <!-- Generator: Sketch 3.8.3 (29802) - http://www.bohemiancoding.com/sketch -->
    <title>linkedin logo</title>
    <desc>Created with Sketch.</desc>
    <defs></defs>
    <g id="Page-1" stroke="none" stroke-width="1" fill="none" fill-rule="evenodd">
        <g id="linkedin-logo" fill="#404040">
            <g id="post-linkedin">
                <path d="M31.5,0 L3.5,0 C1.575,0 0,1.575 0,3.5 L0,31.5 C0,33.425 1.575,35 3.5,35 L31.5,35 C33.425,35 35,33.425 35,31.5 L35,3.5 C35,1.575 33.425,0 31.5,0 L31.5,0 Z M10.5,29.75 L5.25,29.75 L5.25,14 L10.5,14 L10.5,29.75 L10.5,29.75 Z M7.875,11.025 C6.125,11.025 4.725,9.625 4.725,7.875 C4.725,6.125 6.125,4.725 7.875,4.725 C9.625,4.725 11.025,6.125 11.025,7.875 C11.025,9.625 9.625,11.025 7.875,11.025 L7.875,11.025 Z M29.75,29.75 L24.5,29.75 L24.5,20.475 C24.5,19.0750686 23.275,17.85 21.875,17.85 C20.475,17.85 19.25,19.0750686 19.25,20.475 L19.25,29.75 L14,29.75 L14,14 L19.25,14 L19.25,16.1 C20.125,14.7 22.05,13.65 23.625,13.65 C26.95,13.65 29.75,16.45 29.75,19.775 L29.75,29.75 L29.75,29.75 Z" id="Shape"></path>
            </g>
        </g>
    </g>
</svg>