<?xml version="1.0" encoding="UTF-8" standalone="no"?>
<svg width="35px" height="35px" viewBox="0 0 35 35" version="1.1" xmlns="http://www.w3.org/2000/svg" xmlns:xlink="http://www.w3.org/1999/xlink">
    <!-- Generator: Sketch 3.8.3 (29802) - http://www.bohemiancoding.com/sketch -->
    <title>pinterest logo</title>
    <desc>Created with Sketch.</desc>
    <defs></defs>
    <g id="Page-1" stroke="none" stroke-width="1" fill="none" fill-rule="evenodd">
        <g id="pinterest-logo" fill="#404040">
            <g id="Capa_1">
                <g id="post-pinterest">
                    <path d="M31.5,0 L3.5,0 C1.575,0 0,1.575 0,3.5 L0,31.5 C0,33.425 1.575,35 3.5,35 L31.5,35 C33.425,35 35,33.425 35,31.5 L35,3.5 C35,1.575 33.425,0 31.5,0 L31.5,0 Z M19.25,24.85 C17.85,24.85 16.45,24.3250686 15.575,23.2750686 L13.825,28.8750686 L13.65,29.2250686 L13.65,29.2250686 C13.3,29.7500686 12.775,30.1000686 12.075,30.1000686 C11.025,30.1000686 10.15,29.2250686 10.15,28.1750686 L10.15,28.0000686 L10.15,28.0000686 L10.325,27.6500686 L13.475,17.85 C13.475,17.85 13.125,16.8 13.125,15.225 C13.125,12.25 14.7,11.375 16.1,11.375 C17.325,11.375 18.55,11.9 18.55,13.65 C18.55,15.925 16.975,17.15 16.975,18.9 C16.975,20.125 18.025,21.1749314 19.25,21.1749314 C23.275,21.1749314 24.85,18.025 24.85,15.2249314 C24.85,11.3749314 21.5250686,8.22493137 17.5,8.22493137 C13.475,8.22493137 10.15,11.3749314 10.15,15.2249314 C10.15,16.4499314 10.5,17.4999314 11.025,18.5499314 C11.2,18.9 11.2,19.0749314 11.2,19.4249314 C11.2,20.4749314 10.5,21.1749314 9.45,21.1749314 C8.75,21.1749314 8.225,20.8249314 7.875,20.2999314 C7,18.7249314 6.475,16.9749314 6.475,15.0499314 C6.475,9.27493137 11.375,4.54993137 17.325,4.54993137 C23.275,4.54993137 28.175,9.27493137 28.175,15.0499314 C28.35,19.95 25.55,24.85 19.25,24.85 L19.25,24.85 Z" id="Shape"></path>
                </g>
            </g>
        </g>
    </g>
</svg>